<svg width="14" height="14" viewBox="0 0 14 14" fill="none" xmlns="http://www.w3.org/2000/svg">
<path fill-rule="evenodd" clip-rule="evenodd" d="M2.37982 2.33317C2.37982 2.03671 2.62015 1.79639 2.9166 1.79639H7.58327C9.16839 1.79639 10.4534 3.08138 10.4534 4.6665C10.4534 6.25162 9.16839 7.53661 7.58327 7.53661H2.9166C2.62015 7.53661 2.37982 7.29629 2.37982 6.99983V2.33317ZM3.45338 2.86995V6.46305H7.58327C8.57548 6.46305 9.37982 5.65871 9.37982 4.6665C9.37982 3.67429 8.57548 2.86995 7.58327 2.86995H3.45338Z" fill="#616061"/>
<path fill-rule="evenodd" clip-rule="evenodd" d="M2.37982 7.00016C2.37982 6.7037 2.62015 6.46338 2.9166 6.46338H8.1666C9.75172 6.46338 11.0367 7.74837 11.0367 9.33349C11.0367 10.9186 9.75172 12.2036 8.1666 12.2036H2.9166C2.62015 12.2036 2.37982 11.9633 2.37982 11.6668V7.00016ZM3.45338 7.53694V11.13H8.1666C9.15881 11.13 9.96316 10.3257 9.96316 9.33349C9.96316 8.34128 9.15881 7.53694 8.1666 7.53694H3.45338Z" fill="#616061"/>
</svg>
