<svg width="16" height="15" viewBox="0 0 16 15" fill="none" xmlns="http://www.w3.org/2000/svg">
<path fill-rule="evenodd" clip-rule="evenodd" d="M4.55695 3.75023C4.55695 3.48016 4.77588 3.26123 5.04595 3.26123H13.2457C13.5158 3.26123 13.7347 3.48016 13.7347 3.75023C13.7347 4.0203 13.5158 4.23924 13.2457 4.23924H5.04595C4.77588 4.23924 4.55695 4.0203 4.55695 3.75023Z" fill="#616061"/>
<path fill-rule="evenodd" clip-rule="evenodd" d="M4.55695 7.50023C4.55695 7.23016 4.77588 7.01123 5.04595 7.01123H13.2457C13.5158 7.01123 13.7347 7.23016 13.7347 7.50023C13.7347 7.7703 13.5158 7.98924 13.2457 7.98924H5.04595C4.77588 7.98924 4.55695 7.7703 4.55695 7.50023Z" fill="#616061"/>
<path fill-rule="evenodd" clip-rule="evenodd" d="M4.55695 11.2502C4.55695 10.9802 4.77588 10.7612 5.04595 10.7612H13.2457C13.5158 10.7612 13.7347 10.9802 13.7347 11.2502C13.7347 11.5203 13.5158 11.7392 13.2457 11.7392H5.04595C4.77588 11.7392 4.55695 11.5203 4.55695 11.2502Z" fill="#616061"/>
<path fill-rule="evenodd" clip-rule="evenodd" d="M3.01196 3.75023C3.01196 3.48016 2.79303 3.26123 2.52296 3.26123H1.89221C1.62214 3.26123 1.40321 3.48016 1.40321 3.75023C1.40321 4.0203 1.62214 4.23924 1.89221 4.23924H2.52296C2.79303 4.23924 3.01196 4.0203 3.01196 3.75023Z" fill="#616061"/>
<path fill-rule="evenodd" clip-rule="evenodd" d="M3.01196 7.50023C3.01196 7.23016 2.79303 7.01123 2.52296 7.01123H1.89221C1.62214 7.01123 1.40321 7.23016 1.40321 7.50023C1.40321 7.7703 1.62214 7.98924 1.89221 7.98924H2.52296C2.79303 7.98924 3.01196 7.7703 3.01196 7.50023Z" fill="#616061"/>
<path d="M2.52295 11.25H1.8922" stroke="#616061" stroke-width="0.978006" stroke-linecap="round" stroke-linejoin="round"/>
</svg>
