<svg width="14" height="14" viewBox="0 0 14 14" fill="none" xmlns="http://www.w3.org/2000/svg">
<path fill-rule="evenodd" clip-rule="evenodd" d="M5.29648 2.33317C5.29648 2.03671 5.5368 1.79639 5.83326 1.79639H11.0833C11.3797 1.79639 11.62 2.03671 11.62 2.33317C11.62 2.62962 11.3797 2.86995 11.0833 2.86995H5.83326C5.5368 2.86995 5.29648 2.62962 5.29648 2.33317Z" fill="#616061"/>
<path fill-rule="evenodd" clip-rule="evenodd" d="M2.37982 11.6667C2.37982 11.3702 2.62015 11.1299 2.9166 11.1299H8.1666C8.46306 11.1299 8.70338 11.3702 8.70338 11.6667C8.70338 11.9631 8.46306 12.2034 8.1666 12.2034H2.9166C2.62015 12.2034 2.37982 11.9631 2.37982 11.6667Z" fill="#616061"/>
<path fill-rule="evenodd" clip-rule="evenodd" d="M8.93835 1.83071C9.21593 1.9348 9.35657 2.24421 9.25248 2.52179L5.75248 11.8551C5.64839 12.1327 5.33898 12.2733 5.0614 12.1692C4.78382 12.0652 4.64318 11.7557 4.74727 11.4782L8.24728 2.14484C8.35137 1.86726 8.66077 1.72662 8.93835 1.83071Z" fill="#616061"/>
</svg>
