<svg width="16" height="16" viewBox="0 0 16 16" fill="none" xmlns="http://www.w3.org/2000/svg">
<path d="M10.7734 8.07369C10.7734 9.61938 9.53174 10.8724 8.00011 10.8724C6.46849 10.8724 5.22686 9.61938 5.22686 8.07369C5.22686 6.528 6.46849 5.27497 8.00011 5.27497C9.53174 5.27497 10.7734 6.528 10.7734 8.07369ZM10.7734 8.07369L10.7734 8.77338C10.7734 9.93264 11.7047 10.8724 12.8534 10.8724C14.0021 10.8724 14.9333 9.93264 14.9333 8.77338V8.0737C14.9331 4.82222 12.7134 1.99937 9.57584 1.26043C6.43825 0.521487 3.20973 2.06121 1.78343 4.97672C0.35713 7.89224 1.10897 11.4151 3.59809 13.4796C6.0872 15.5441 9.65755 15.606 12.2155 13.6292" stroke="#616061" stroke-width="0.941892" stroke-linecap="round" stroke-linejoin="round"/>
</svg>
